<?xml version="1.0" standalone="no"?>
<!DOCTYPE svg PUBLIC "-//W3C//DTD SVG 20010904//EN"
 "http://www.w3.org/TR/2001/REC-SVG-20010904/DTD/svg10.dtd">
<svg version="1.0" xmlns="http://www.w3.org/2000/svg"
 width="512.000000pt" height="512.000000pt" viewBox="0 0 512.000000 512.000000"
 preserveAspectRatio="xMidYMid meet">
<metadata>
Created by potrace 1.14, written by Peter Selinger 2001-2017
</metadata>
<g transform="translate(0.000000,512.000000) scale(0.100000,-0.100000)"
fill="#000000" stroke="none">
<path d="M2310 5103 c-191 -19 -453 -79 -627 -143 -240 -89 -517 -247 -728
-417 -127 -102 -329 -310 -423 -436 -212 -281 -359 -586 -442 -912 -50 -197
-70 -342 -77 -550 -22 -688 230 -1342 710 -1841 389 -405 871 -660 1431 -755
156 -27 497 -37 658 -20 723 77 1363 443 1796 1026 248 334 409 724 473 1147
31 203 31 523 0 727 -85 560 -327 1038 -726 1436 -407 407 -922 660 -1485 730
-113 14 -456 19 -560 8z m-632 -1135 l178 -363 72 150 c40 83 119 246 175 362
l102 213 263 0 262 0 0 -805 0 -805 -275 0 -275 0 0 323 0 322 -92 -187 -92
-188 -143 0 -144 0 -94 193 -94 192 0 -327 -1 -328 -275 0 -275 0 0 805 0 805
265 0 265 0 178 -362z m2385 -63 c96 -20 168 -55 228 -111 98 -92 134 -195
126 -354 -6 -121 -32 -192 -97 -263 l-48 -53 31 -14 c18 -8 55 -37 84 -66 64
-64 86 -129 86 -254 0 -229 -110 -380 -332 -458 -40 -14 -123 -16 -598 -19
l-553 -4 0 806 0 805 503 0 c400 0 516 -3 570 -15z m-2418 -2003 c51 -26 107
-84 135 -142 31 -61 32 -160 1 -223 -27 -56 -80 -110 -134 -139 -59 -32 -184
-32 -243 -1 -66 35 -101 70 -130 128 -74 153 0 330 163 391 52 20 157 13 208
-14z m688 12 c109 -37 187 -147 187 -264 -1 -148 -109 -266 -256 -278 -90 -7
-155 18 -221 83 -89 90 -107 215 -47 326 68 124 205 178 337 133z m775 -13
c203 -104 212 -383 15 -493 -136 -77 -312 -24 -386 116 -29 54 -31 194 -4 243
40 74 105 127 187 154 42 14 142 3 188 -20z m666 18 c23 -6 65 -27 92 -48 140
-106 147 -320 13 -434 -107 -92 -259 -89 -368 9 -69 62 -95 126 -89 220 12
181 174 298 352 253z m752 -6 c68 -23 145 -102 169 -172 21 -64 17 -159 -9
-210 -26 -49 -85 -110 -130 -133 -56 -29 -150 -35 -213 -14 -159 53 -235 241
-158 391 65 128 205 184 341 138z m-3611 -21 c53 -27 119 -98 136 -148 20 -57
16 -151 -8 -204 -47 -106 -130 -160 -245 -160 -109 0 -191 47 -240 137 -82
150 -14 329 148 389 53 20 158 13 209 -14z"/>
<path d="M3510 3419 l0 -124 162 5 c102 3 171 10 184 17 39 22 54 92 33 152
-19 54 -54 65 -226 69 l-153 4 0 -123z"/>
<path d="M3510 2816 l0 -126 160 0 c212 0 242 15 243 119 1 112 -23 125 -240
129 l-163 4 0 -126z"/>
</g>
</svg>
